<?xml version="1.0" encoding="UTF-8"?>
<svg id="Layer_2" xmlns="http://www.w3.org/2000/svg" width="36.41" height="39.5" viewBox="0 0 36.41 39.5">
  <defs>
    <style>
      .cls-1 {
        fill: #1a1a1a;
      }
    </style>
  </defs>
  <g id="menu_inicio">
    <g>
      <path class="cls-1" d="M18.4,20.8c1.4,0,2.6-1.2,2.6-2.6V2.6c0-1.4-1.2-2.6-2.6-2.6s-2.6,1.2-2.6,2.6v15.6c0,1.4,1.2,2.6,2.6,2.6Z"/>
      <path class="cls-1" d="M29.3,6.8c-.5-.3-1-.5-1.6-.5-.8,0-1.6.4-2.1,1-.4.5-.6,1.2-.5,1.9s.5,1.3,1,1.7c3.3,2.5,5.2,6.3,5.2,10.4,0,7.2-5.8,13-13,13s-13-5.8-13-13c0-4.1,1.9-7.9,5.2-10.4.6-.4.9-1,1-1.7s-.1-1.4-.5-1.9c-.5-.7-1.2-1-2.1-1-.6,0-1.1.2-1.6.5C2.7,10.3,0,15.6,0,21.3c0,10,8.2,18.2,18.2,18.2s18.2-8.2,18.2-18.2c.2-5.8-2.4-11.1-7.1-14.5Z"/>
    </g>
  </g>
</svg>