<?xml version="1.0" encoding="UTF-8"?>
<svg id="Layer_2" xmlns="http://www.w3.org/2000/svg" width="36.25" height="33.5" viewBox="0 0 36.25 33.5">
  <defs>
    <style>
      .cls-1 {
        fill: #1a1a1a;
      }
    </style>
  </defs>
  <g id="menu_inicio">
    <path class="cls-1" d="M35.9,29.7L20.4,1.3c-.4-.8-1.3-1.3-2.3-1.3-.9,0-1.8.5-2.3,1.3L.3,29.7c-.4.8-.4,1.8,0,2.5.5.8,1.3,1.3,2.2,1.3h31c.9,0,1.8-.5,2.2-1.3.7-.7.7-1.7.2-2.5ZM19.8,27.8c0,.5-.4.9-.9.9h-1.6c-.5,0-.9-.4-.9-.9v-1.5c0-.5.4-.9.9-.9h1.6c.5,0,.9.4.9.9v1.5ZM19.9,22.4c0,.5-.4.9-.9.9h-1.7c-.5,0-.9-.4-.9-.9l-.4-10.9c0-.5.4-.9.8-.9h2.6c.5,0,.9.4.8.9l-.3,10.9Z"/>
  </g>
</svg>