<?xml version="1.0" encoding="UTF-8"?>
<svg id="Layer_2" xmlns="http://www.w3.org/2000/svg" width="36.5" height="39.1" viewBox="0 0 36.5 39.1">
  <defs>
    <style>
      .cls-1 {
        fill: #1a1a1a;
      }
    </style>
  </defs>
  <g id="menu_inicio">
    <g>
      <path class="cls-1" d="M35,1.7c-.1.1-.2.1-.4.2h0c-1.3.5-3.3,1-6.1,1-5.7,0-6.2-2.9-11.8-2.9S7.1,3.5,7.1,3.5v18.7c0,.2.1.4.6.1h0c1.3-.9,4.7-3,9-3,5.6,0,6.1,2.9,11.8,2.9s8-1.9,8-1.9V2.7c0-1.3-.9-1.1-1.5-1Z"/>
      <path class="cls-1" d="M4.8,37.6c0,.8-.7,1.5-1.5,1.5h-1.8c-.9,0-1.5-.7-1.5-1.5V3.3c0-.8.7-1.5,1.5-1.5h1.8c.9,0,1.5.7,1.5,1.5v34.3Z"/>
    </g>
  </g>
</svg>