<?xml version="1.0" encoding="UTF-8"?>
<svg id="Layer_2" xmlns="http://www.w3.org/2000/svg" width="37.62" height="46.5" viewBox="0 0 37.62 46.5">
  <defs>
    <style>
      .cls-1 {
        fill: #1a1a1a;
      }
    </style>
  </defs>
  <g id="menu_inicio">
    <path class="cls-1" d="M36.02,11.6c-.4,0-.7.1-1,.3l-4,2.8v-.9c-.1-.5-.2-1-.6-1.1-.3-.1-1-.1-1.5-.1h-1.5c.9-.8,1.6-1.9,2.1-3.3.4-1.4.4-3.3-.2-4.7-1-2.5-3.2-4.2-6.3-4.6h-.9c-3.6.4-5.7,2.4-6.6,5.5-.9-3.1-3-5.1-6.6-5.5h-.9C4.82.3,2.72,2,1.72,4.6c-.5,1.4-.6,3.2-.2,4.7.4,1.3,1.1,2.3,1.9,3.2l.1.1h-1.5c-.5,0-1.3-.1-1.5.1C-.08,13,.02,14,.02,15v11.4c0,1-.2,2.7.6,3,.3.1.8,0,1.3,0h7c0,.1-.1.3-.1.4-2.3,5.5-4.6,11.1-6.8,16.7h4.2c2.4-5.7,4.7-11.5,7-17.1h.5l-.4,17.1h5.1l-.4-17.1h.6c2.3,5.6,4.6,11.4,7,17.1h4.2c-1.9-4.6-3.8-9.1-5.6-13.7-.5-1.1-.9-2.2-1.3-3.4h6.5c.4,0,1,.1,1.2,0,.5-.2.6-1.1.6-1.8v-.3l4,2.8c.3.2.6.3,1,.3.8,0,1.4-.4,1.4-1V12.6c-.2-.5-.8-1-1.6-1ZM13.42,12.6c0-.1.1-.1.1-.2.9-.9,1.7-2,2-3.5.4,1.5,1.2,2.7,2.2,3.6-1.5.1-2.9.1-4.3.1Z"/>
  </g>
</svg>