<?xml version="1.0" encoding="UTF-8"?>
<svg id="Layer_2" xmlns="http://www.w3.org/2000/svg" width="41.4" height="41.4" viewBox="0 0 41.4 41.4">
  <defs>
    <style>
      .cls-1 {
        fill: #1a1a1a;
      }
    </style>
  </defs>
  <g id="menu_inicio">
    <path class="cls-1" d="M37.4,20.7c0-2.6,1.6-4.6,4-6-.4-1.4-1-2.8-1.7-4.1-2.7.7-4.8-.4-6.7-2.2-1.8-1.8-2.4-4-1.7-6.7-1.3-.7-2.7-1.3-4.1-1.7-1.4,2.4-3.9,4-6.5,4s-5.1-1.6-6.5-4c-1.4.4-2.8,1-4.1,1.7.7,2.7.1,4.8-1.7,6.7-1.8,1.8-4,2.9-6.7,2.2-.7,1.3-1.3,2.7-1.7,4.1,2.4,1.4,4,3.4,4,6s-1.6,5.1-4,6.5c.4,1.4,1,2.8,1.7,4.1,2.7-.7,4.9-.1,6.7,1.7,1.8,1.8,2.4,4,1.7,6.7,1.3.7,2.7,1.3,4.1,1.7,1.4-2.4,3.9-4,6.5-4s5.1,1.6,6.5,4c1.4-.4,2.8-1,4.1-1.7-.7-2.7-.1-4.8,1.7-6.7,1.8-1.8,4-2.9,6.7-2.2.7-1.3,1.3-2.7,1.7-4.1-2.4-1.4-4-3.4-4-6ZM20.7,28.1c-4.1,0-7.4-3.3-7.4-7.4s3.3-7.4,7.4-7.4,7.4,3.3,7.4,7.4-3.3,7.4-7.4,7.4Z"/>
  </g>
</svg>