<?xml version="1.0" encoding="UTF-8"?>
<svg id="Layer_2" xmlns="http://www.w3.org/2000/svg" width="41.4" height="26.6" viewBox="0 0 41.4 26.6">
  <defs>
    <style>
      .cls-1 {
        fill: #1a1a1a;
      }
    </style>
  </defs>
  <g id="menu_inicio">
    <g>
      <path class="cls-1" d="M1.5,2.5c1.1.6,16.6,8.9,17.2,9.2.6.3,1.3.5,2.1.5s1.5-.2,2.1-.5S39,3.1,40.1,2.5c1.1-.6,2.2-2.5.1-2.5H1.4c-2.1,0-1.1,1.9.1,2.5Z"/>
      <path class="cls-1" d="M40.5,7.1c-1.3.7-16.9,8.8-17.7,9.2s-1.3.5-2.1.5-1.3-.1-2.1-.5S2.2,7.7.9,7.1c-.9-.5-.9.1-.9.5v16.8c0,1,1.3,2.2,2.3,2.2h36.8c1,0,2.3-1.2,2.3-2.2V7.6c0-.4,0-1-.9-.5Z"/>
    </g>
  </g>
</svg>