<?xml version="1.0" encoding="UTF-8"?>
<svg id="Layer_2" xmlns="http://www.w3.org/2000/svg" width="36.1" height="40" viewBox="0 0 36.1 40">
  <defs>
    <style>
      .cls-1 {
        fill: #1a1a1a;
      }
    </style>
  </defs>
  <g id="menu_inicio">
    <g>
      <path class="cls-1" d="M27.6,0c-3.9,0-7.1,3.2-7.1,7.1,0,6.7,7.1,15.5,7.1,15.5,0,0,7.1-8.8,7.1-15.5,0-3.9-3.2-7.1-7.1-7.1ZM27.6,11c-2.1,0-3.8-1.7-3.8-3.8s1.7-3.8,3.8-3.8,3.8,1.7,3.8,3.8c.1,2.1-1.7,3.8-3.8,3.8Z"/>
      <path class="cls-1" d="M13.5,27.4L1.8,39.1c.8.5,1.7.9,2.7.9h27.1c2.5,0,4.5-2,4.5-4.4l-22.6-8.2Z"/>
      <path class="cls-1" d="M29.5,24.1l-1.9,2.3-1.9-2.3c-.1-.2-1.9-2.3-3.6-5.4l-5.5,5.5,19.5,7V12.2c-2,6.1-6.4,11.6-6.6,11.9Z"/>
      <path class="cls-1" d="M18.2,7.1c0-1.1.2-2.2.6-3.2H4.5C2,3.9,0,5.9,0,8.4v27L20.3,15.1c-1.2-2.6-2.1-5.4-2.1-8Z"/>
    </g>
  </g>
</svg>