<?xml version="1.0" encoding="UTF-8"?>
<svg id="Layer_2" xmlns="http://www.w3.org/2000/svg" width="36.25" height="34.55" viewBox="0 0 36.25 34.55">
  <defs>
    <style>
      .cls-1 {
        fill: #1a1a1a;
      }
    </style>
  </defs>
  <g id="menu_inicio">
    <g>
      <path class="cls-1" d="M29.2,18.15v8.4c0,1.5-1.2,2.7-2.7,2.7H7.9c-1.5,0-2.7-1.2-2.7-2.7V7.95c0-1.5,1.2-2.7,2.7-2.7h11.5L24.6.05H7.9C3.6.05,0,3.55,0,7.95v18.7c0,4.3,3.5,7.9,7.9,7.9h18.7c4.3,0,7.9-3.5,7.9-7.9v-14l-5.3,5.5Z"/>
      <path class="cls-1" d="M19.7,20.75c-.6.6-1.6.6-2.2,0l-8.4-8.4c-.6-.6-.6-1.6,0-2.2l2.2-2.2c.6-.6,1.6-.6,2.2,0l5.2,5.2L31.4.45c.6-.6,1.6-.6,2.2,0l2.2,2.2c.6.6.6,1.6,0,2.2l-16.1,15.9Z"/>
    </g>
  </g>
</svg>