<?xml version="1.0" encoding="UTF-8"?>
<svg id="Layer_2" xmlns="http://www.w3.org/2000/svg" width="39.1" height="41.3" viewBox="0 0 39.1 41.3">
  <defs>
    <style>
      .cls-1 {
        fill: #1a1a1a;
      }
    </style>
  </defs>
  <g id="menu_inicio">
    <g>
      <path class="cls-1" d="M33.3,5.9c0-3.3-2.6-5.9-5.9-5.9-1.8,0-3.4.7-4.4,2l-3.4,4.4-3.4-4.4c-1-1.3-2.7-2-4.4-2-3.3,0-5.9,2.6-5.9,5.9s2.6,5.9,5.9,5.9h15.6c3.2,0,5.9-2.6,5.9-5.9ZM11.7,8.4c-1.4,0-2.5-1.1-2.5-2.5s1.1-2.5,2.5-2.5c.9,0,1.5.5,1.8.8l3.3,4.2h-5.1ZM27.4,8.4h-5.1l3.3-4.2c.3-.3.9-.8,1.8-.8,1.4,0,2.5,1.1,2.5,2.5s-1.2,2.5-2.5,2.5Z"/>
      <g>
        <path class="cls-1" d="M1.5,23.1v15.5c0,1.5,1.2,2.7,2.7,2.7h11.6v-18.2H1.5Z"/>
        <path class="cls-1" d="M23.3,23.1v18.2h11.6c1.5,0,2.7-1.2,2.7-2.7v-15.5h-14.3Z"/>
      </g>
      <g>
        <path class="cls-1" d="M15.8,11.8H.9c-.5,0-.9.4-.9.9v7.3c0,.5.4.9.9.9h14.9v-9.1h0Z"/>
        <path class="cls-1" d="M38.2,11.8h-14.9v9.1h14.9c.5,0,.9-.4.9-.9v-7.3c0-.5-.4-.9-.9-.9Z"/>
      </g>
    </g>
  </g>
</svg>