<?xml version="1.0" encoding="UTF-8"?>
<svg id="Layer_2" xmlns="http://www.w3.org/2000/svg" width="40.41" height="31.5" viewBox="0 0 40.41 31.5">
  <defs>
    <style>
      .cls-1 {
        fill: #1a1a1a;
      }
    </style>
  </defs>
  <g id="menu_inicio">
    <path class="cls-1" d="M38.6,0H1.9C.8,0,0,.9,0,2v27.5c0,1.1.9,2,1.9,2h36.6c1.1,0,1.9-.9,1.9-2V2c.1-1.1-.8-2-1.8-2ZM18.2,2.4c0-.4.5-.8,1-.8h2.1c.6,0,1,.4,1,.8v1.6c0,.4-.5.8-1,.8h-2.1c-.6,0-1-.4-1-.8v-1.6ZM7.3,28.4c0,.4-.5.8-1,.8h-2.1c-.6,0-1-.4-1-.8v-1.6c0-.4.5-.8,1-.8h2.1c.6,0,1,.4,1,.8v1.6ZM7.3,3.9c0,.4-.5.8-1,.8h-2.1c-.6,0-1-.4-1-.8v-1.6c0-.4.5-.8,1-.8h2.1c.6,0,1,.4,1,.8v1.6ZM14.8,28.4c0,.4-.5.8-1,.8h-2.1c-.6,0-1-.4-1-.8v-1.6c0-.4.5-.8,1-.8h2.1c.6,0,1,.4,1,.8v1.6ZM14.8,3.9c0,.4-.5.8-1,.8h-2.1c-.6,0-1-.4-1-.8v-1.6c0-.4.5-.8,1-.8h2.1c.6,0,1,.4,1,.8v1.6ZM15.5,22v-12.5c0-.3.2-.4.5-.3l11.3,6.3c.3.1.3.4,0,.5l-11.3,6.3c-.2.2-.5,0-.5-.3ZM22.3,28.4c0,.4-.5.8-1,.8h-2.1c-.6,0-1-.4-1-.8v-1.6c0-.4.5-.8,1-.8h2.1c.6,0,1,.4,1,.8v1.6ZM29.9,28.4c0,.4-.5.8-1,.8h-2.1c-.6,0-1-.4-1-.8v-1.6c0-.4.5-.8,1-.8h2.1c.6,0,1,.4,1,.8v1.6ZM29.9,3.9c0,.4-.5.8-1,.8h-2.1c-.6,0-1-.4-1-.8v-1.6c0-.4.5-.8,1-.8h2.1c.6,0,1,.4,1,.8v1.6ZM37.4,28.4c0,.4-.5.8-1,.8h-2.1c-.6,0-1-.4-1-.8v-1.6c0-.4.5-.8,1-.8h2.1c.6,0,1,.4,1,.8v1.6ZM37.4,3.9c0,.4-.5.8-1,.8h-2.1c-.6,0-1-.4-1-.8v-1.6c0-.4.5-.8,1-.8h2.1c.6,0,1,.4,1,.8v1.6Z"/>
  </g>
</svg>