<?xml version="1.0" encoding="UTF-8"?>
<svg id="Layer_2" xmlns="http://www.w3.org/2000/svg" width="330.55" height="317.97" viewBox="0 0 330.55 317.97">
  <defs>
    <style>
      .cls-1, .cls-2 {
        fill: #fff;
      }

      .cls-3 {
        letter-spacing: -.07em;
      }

      .cls-2 {
        font-family: Adrianna-Demibold, Adrianna;
        font-size: 90.76px;
        font-weight: 300;
      }
    </style>
  </defs>
  <g id="menu_inicio">
    <g>
      <path class="cls-1" d="M250.93,134.1c0,7.74-6.26,14.37-14.37,14.37H93.99c-7.74,0-14.37-6.26-14.37-14.37V14.37c0-7.74,6.26-14.37,14.37-14.37h142.58c7.74,0,14.37,6.26,14.37,14.37v119.74ZM112.04,18.05c0-2.58-2.21-4.79-4.79-4.79h-9.58c-2.58,0-4.79,2.21-4.79,4.79v9.58c0,2.58,2.21,4.79,4.79,4.79h9.58c2.58,0,4.79-2.21,4.79-4.79v-9.58ZM112.04,52.32c0-2.58-2.21-4.79-4.79-4.79h-9.58c-2.58,0-4.79,2.21-4.79,4.79v9.58c0,2.58,2.21,4.79,4.79,4.79h9.58c2.58,0,4.79-2.21,4.79-4.79v-9.58ZM112.04,86.58c0-2.58-2.21-4.79-4.79-4.79h-9.58c-2.58,0-4.79,2.21-4.79,4.79v9.58c0,2.58,2.21,4.79,4.79,4.79h9.58c2.58,0,4.79-2.21,4.79-4.79v-9.58ZM112.04,120.84c0-2.58-2.21-4.79-4.79-4.79h-9.58c-2.58,0-4.79,2.21-4.79,4.79v9.58c0,2.58,2.21,4.79,4.79,4.79h9.58c2.58,0,4.79-2.21,4.79-4.79v-9.58ZM205.25,16.95c0-2.95-2.58-5.89-5.53-5.89h-68.53c-2.95,0-5.89,2.58-5.89,5.89v45.68c0,2.95,2.58,5.53,5.89,5.53h68.53c2.95,0,5.53-2.58,5.53-5.53V16.95ZM205.25,85.47c0-2.95-2.58-5.89-5.53-5.89h-68.53c-2.95,0-5.89,2.58-5.89,5.89v45.68c0,2.95,2.58,5.53,5.89,5.53h68.53c2.95,0,5.53-2.58,5.53-5.53v-45.68ZM237.67,18.05c0-2.58-2.21-4.79-4.79-4.79h-9.58c-2.58,0-4.79,2.21-4.79,4.79v9.58c0,2.58,2.21,4.79,4.79,4.79h9.58c2.58,0,4.79-2.21,4.79-4.79v-9.58ZM237.67,52.32c0-2.58-2.21-4.79-4.79-4.79h-9.58c-2.58,0-4.79,2.21-4.79,4.79v9.58c0,2.58,2.21,4.79,4.79,4.79h9.58c2.58,0,4.79-2.21,4.79-4.79v-9.58ZM237.67,86.58c0-2.58-2.21-4.79-4.79-4.79h-9.58c-2.58,0-4.79,2.21-4.79,4.79v9.58c0,2.58,2.21,4.79,4.79,4.79h9.58c2.58,0,4.79-2.21,4.79-4.79v-9.58ZM237.67,120.84c0-2.58-2.21-4.79-4.79-4.79h-9.58c-2.58,0-4.79,2.21-4.79,4.79v9.58c0,2.58,2.21,4.79,4.79,4.79h9.58c2.58,0,4.79-2.21,4.79-4.79v-9.58Z"/>
      <text class="cls-2" transform="translate(0 290.2)"><tspan x="0" y="0">Cáma</tspan><tspan class="cls-3" x="245.05" y="0">r</tspan><tspan x="277.55" y="0">a</tspan></text>
    </g>
  </g>
</svg>