<?xml version="1.0" encoding="UTF-8"?>
<svg id="Layer_2" xmlns="http://www.w3.org/2000/svg" width="283.72" height="319.81" viewBox="0 0 283.72 319.81">
  <defs>
    <style>
      .cls-1 {
        letter-spacing: -.02em;
      }

      .cls-2, .cls-3 {
        fill: #fff;
      }

      .cls-3 {
        font-family: Adrianna-Demibold, Adrianna;
        font-size: 90.76px;
        font-weight: 300;
      }
    </style>
  </defs>
  <g id="menu_inicio">
    <g>
      <g>
        <path class="cls-2" d="M192.52,21.74c0-12.16-9.58-21.74-21.74-21.74-6.63,0-12.53,2.58-16.21,7.37l-12.53,16.21-12.53-16.21c-3.68-4.79-9.95-7.37-16.21-7.37-12.16,0-21.74,9.58-21.74,21.74s9.58,21.74,21.74,21.74h57.47c11.79,0,21.74-9.58,21.74-21.74ZM112.94,30.95c-5.16,0-9.21-4.05-9.21-9.21s4.05-9.21,9.21-9.21c3.32,0,5.53,1.84,6.63,2.95l12.16,15.47h-18.79ZM170.78,30.95h-18.79l12.16-15.47c1.11-1.11,3.32-2.95,6.63-2.95,5.16,0,9.21,4.05,9.21,9.21s-4.42,9.21-9.21,9.21Z"/>
        <g>
          <path class="cls-2" d="M75.36,85.1v57.1c0,5.53,4.42,9.95,9.95,9.95h42.74v-67.05h-52.68Z"/>
          <path class="cls-2" d="M155.68,85.1v67.05h42.74c5.53,0,9.95-4.42,9.95-9.95v-57.1h-52.68Z"/>
        </g>
        <g>
          <path class="cls-2" d="M128.04,43.47h-54.89c-1.84,0-3.32,1.47-3.32,3.32v26.89c0,1.84,1.47,3.32,3.32,3.32h54.89v-33.53h0Z"/>
          <path class="cls-2" d="M210.57,43.47h-54.89v33.53h54.89c1.84,0,3.32-1.47,3.32-3.32v-26.89c0-1.84-1.47-3.32-3.32-3.32Z"/>
        </g>
      </g>
      <text class="cls-3" transform="translate(0 292.04)"><tspan class="cls-1" x="0" y="0">T</tspan><tspan x="60.63" y="0">ienda</tspan></text>
    </g>
  </g>
</svg>