<?xml version="1.0" encoding="UTF-8"?>
<svg id="Layer_2" xmlns="http://www.w3.org/2000/svg" width="36.08" height="33.5" viewBox="0 0 36.08 33.5">
  <defs>
    <style>
      .cls-1 {
        fill: #1a1a1a;
      }
    </style>
  </defs>
  <g id="menu_inicio">
    <g>
      <path class="cls-1" d="M18.1,4l14.3,26.2H3.8L18.1,4M18.1,0c-.9,0-1.8.5-2.3,1.3L.3,29.7c-.4.8-.4,1.8,0,2.5.5.8,1.3,1.3,2.2,1.3h31c.9,0,1.8-.5,2.2-1.3.5-.8.5-1.8,0-2.5L20.2,1.3c-.2-.8-1.1-1.3-2.1-1.3h0Z"/>
      <g>
        <path class="cls-1" d="M19.6,26.8c0,.4-.3.8-.8.8h-1.4c-.4,0-.8-.3-.8-.8v-1.3c0-.4.3-.8.8-.8h1.4c.4,0,.8.3.8.8v1.3Z"/>
        <path class="cls-1" d="M19.7,21.9c0,.4-.4.8-.8.8h-1.5c-.4,0-.8-.3-.8-.8l-.4-9.6c0-.4.3-.8.7-.8h2.3c.4,0,.8.3.7.8l-.2,9.6Z"/>
      </g>
    </g>
  </g>
</svg>