<?xml version="1.0" encoding="UTF-8"?>
<svg id="Layer_2" xmlns="http://www.w3.org/2000/svg" width="3840.85" height="2160.48" xmlns:xlink="http://www.w3.org/1999/xlink" viewBox="0 0 3840.85 2160.48">
  <defs>
    <style>
      .cls-1 {
        fill: #ececec;
      }
    </style>
  </defs>
  <g id="backgrounds">
    <g>
      <image width="1920" height="1080" transform="scale(2)" xlink:href="../Animacion logo icomex/0057.png"/>
      <g>
        <path class="cls-1" d="M3614.56,1743.74c0-14.04-5.47-27.23-15.39-37.16-9.92-9.92-23.12-15.39-37.16-15.39s-27.23,5.47-37.16,15.39c-9.92,9.92-15.39,23.12-15.39,37.16s5.47,27.23,15.39,37.16c8.09,8.09,18.35,13.21,29.47,14.83v5.46c0,4.17,3.38,7.54,7.54,7.54s7.54-3.38,7.54-7.54v-5.42c11.23-1.57,21.6-6.71,29.76-14.87,9.92-9.92,15.39-23.12,15.39-37.16ZM3561.87,1748.02c-4.17,0-7.54,3.38-7.54,7.54v14.96c-11.89-3.1-20.69-13.93-20.69-26.78,0-15.26,12.41-27.67,27.67-27.67s27.67,12.41,27.67,27.67c0,12.44-8.25,22.99-19.57,26.46v-14.65c0-4.17-3.38-7.54-7.54-7.54ZM3569.41,1793.33v-2.53c9.91-1.54,19.05-6.15,26.28-13.38,8.99-8.99,13.95-20.95,13.95-33.67s-4.95-24.68-13.95-33.67c-8.99-8.99-20.95-13.95-33.67-13.95-4.17,0-7.54,3.38-7.54,7.54s3.38,7.54,7.54,7.54c17.94,0,32.54,14.6,32.54,32.54,0,15.4-10.75,28.33-25.15,31.69v-2.72c12.67-3.55,21.98-15.19,21.98-28.97,0-16.59-13.5-30.08-30.08-30.08s-30.08,13.5-30.08,30.08c0,14.19,9.87,26.11,23.1,29.26v20.28c-24.01-3.71-42.44-24.51-42.44-49.54,0-27.64,22.49-50.13,50.13-50.13s50.13,22.49,50.13,50.13c0,25.13-18.59,46-42.74,49.59Z"/>
        <g>
          <path class="cls-1" d="M3037.38,1684.88h-10.68l-2.2,6.24h-5.28l10.85-28.31h3.99l10.89,28.31h-5.32l-2.24-6.24ZM3035.93,1680.81l-3.95-11.01-3.87,11.01h7.81Z"/>
          <path class="cls-1" d="M3075.13,1675.86v13.13c-2.88,1.69-6.32,2.54-10.31,2.54-2.94,0-5.49-.6-7.65-1.79-2.16-1.19-3.82-2.87-4.99-5.03-1.16-2.16-1.75-4.65-1.75-7.48s.62-5.52,1.85-7.75c1.23-2.23,2.98-3.96,5.24-5.19,2.26-1.23,4.88-1.85,7.88-1.85s5.86.54,8.44,1.62v4.7c-1.14-.58-2.41-1.05-3.8-1.41-1.4-.36-2.82-.54-4.26-.54-3.1,0-5.56.91-7.38,2.72-1.81,1.81-2.72,4.33-2.72,7.54,0,2.02.41,3.8,1.23,5.32.82,1.52,1.98,2.7,3.49,3.53,1.51.83,3.26,1.25,5.26,1.25,1.61,0,3.17-.33,4.7-1v-6.15h-5.94v-4.16h10.72Z"/>
          <polygon class="cls-1" points="3102.31 1687.08 3102.31 1691.11 3085.52 1691.11 3085.52 1662.85 3102.18 1662.85 3102.18 1666.88 3090.5 1666.88 3090.5 1674.86 3101.39 1674.86 3101.39 1678.89 3090.5 1678.89 3090.5 1687.08 3102.31 1687.08"/>
          <polygon class="cls-1" points="3136.6 1662.85 3136.6 1691.11 3132.57 1691.11 3116.6 1670.37 3116.6 1691.11 3112.12 1691.11 3112.12 1662.85 3116.48 1662.85 3132.11 1683.34 3132.11 1662.85 3136.6 1662.85"/>
          <path class="cls-1" d="M3152.7,1689.72c-2.18-1.2-3.87-2.89-5.07-5.07-1.21-2.18-1.81-4.66-1.81-7.46s.6-5.48,1.81-7.71c1.2-2.23,2.94-3.96,5.19-5.2,2.26-1.23,4.9-1.85,7.92-1.85,2.47,0,4.74.35,6.82,1.04v4.61c-2.13-.86-4.27-1.29-6.4-1.29s-3.87.44-5.38,1.31c-1.51.87-2.67,2.09-3.47,3.66-.8,1.57-1.21,3.37-1.21,5.42,0,1.94.4,3.67,1.18,5.18.79,1.51,1.9,2.69,3.33,3.53,1.43.85,3.07,1.27,4.92,1.27,2.41,0,4.74-.5,6.98-1.5v4.61c-1.03.42-2.12.73-3.29.94-1.16.21-2.52.31-4.07.31-2.8,0-5.29-.6-7.46-1.81"/>
          <rect class="cls-1" x="3176.62" y="1662.85" width="4.99" height="28.26"/>
          <path class="cls-1" d="M3207.38,1684.88h-10.68l-2.2,6.24h-5.28l10.85-28.31h3.99l10.89,28.31h-5.32l-2.24-6.24ZM3205.93,1680.81l-3.95-11.01-3.87,11.01h7.81Z"/>
          <rect class="cls-1" x="3023.2" y="1708.17" width="21.95" height="77.33"/>
          <rect class="cls-1" x="3056.86" y="1745.13" width="32.53" height="17.63"/>
          <path class="cls-1" d="M3116.05,1781.8c-6.1-3.22-10.88-7.81-14.33-13.76-3.45-5.95-5.17-12.87-5.17-20.75s1.72-15.31,5.17-21.38c3.45-6.07,8.38-10.73,14.78-13.99,6.4-3.26,14.01-4.89,22.8-4.89,6.97,0,13.08,1.02,18.31,3.07v18.42c-4.7-1.82-9.86-2.73-15.47-2.73-7.13,0-12.64,1.88-16.55,5.63-3.9,3.75-5.86,9-5.86,15.75,0,6.37,1.88,11.39,5.63,15.07,3.75,3.68,8.89,5.52,15.41,5.52,3.26,0,6.18-.3,8.76-.91,2.58-.6,5.34-1.48,8.3-2.62v18.31c-5.61,2.73-12.55,4.1-20.81,4.1s-14.88-1.61-20.98-4.83"/>
          <path class="cls-1" d="M3180.07,1781.58c-6.03-3.37-10.73-8.08-14.1-14.1-3.37-6.03-5.06-12.87-5.06-20.53,0-8.04,1.69-15.07,5.06-21.1,3.37-6.03,8.11-10.67,14.21-13.93,6.1-3.26,13.1-4.89,20.98-4.89s14.52,1.57,20.58,4.72c6.06,3.15,10.84,7.72,14.33,13.71,3.49,5.99,5.23,13,5.23,21.04s-1.69,14.63-5.06,20.7c-3.37,6.07-8.13,10.82-14.27,14.27-6.14,3.45-13.31,5.17-21.49,5.17-7.58,0-14.39-1.68-20.41-5.06M3213.57,1762.24c2.96-3.68,4.43-8.85,4.43-15.52s-1.52-12-4.55-15.52c-3.03-3.52-7.05-5.29-12.05-5.29s-9.42,1.78-12.57,5.34c-3.15,3.56-4.72,8.68-4.72,15.35s1.5,12.05,4.49,15.69c2.99,3.64,7.14,5.46,12.45,5.46s9.55-1.84,12.51-5.51"/>
          <polygon class="cls-1" points="3334.68 1708.17 3334.68 1785.5 3314.32 1785.5 3314.32 1744.1 3295.1 1771.96 3289.42 1771.96 3270.65 1744.44 3270.65 1785.5 3250.41 1785.5 3250.41 1708.17 3270.08 1708.17 3293.17 1743.19 3316.82 1708.17 3334.68 1708.17"/>
          <polygon class="cls-1" points="3399.84 1768.67 3399.84 1785.5 3348.44 1785.5 3348.44 1708.17 3399.38 1708.17 3399.38 1725 3370.38 1725 3370.38 1738.08 3397.22 1738.08 3397.22 1755.02 3370.38 1755.02 3370.38 1768.67 3399.84 1768.67"/>
          <polygon class="cls-1" points="3458.29 1785.5 3442.94 1760.7 3427.93 1785.5 3403.25 1785.5 3430.2 1745.81 3404.16 1708.17 3429.41 1708.17 3442.94 1731.25 3457.72 1708.17 3482.4 1708.17 3456.47 1746.15 3482.96 1785.5 3458.29 1785.5"/>
          <polygon class="cls-1" points="3232.14 1802.05 3225.45 1833.94 3244.36 1833.94 3242.82 1841.18 3215.31 1841.18 3223.48 1802.05 3232.14 1802.05"/>
          <path class="cls-1" d="M3274.67,1802.05l6.52,39.13h-8.55l-1.26-8.71h-14.63l-4.93,8.71h-9.04l23.07-39.13h8.82ZM3270.61,1826.05l-1.92-15.56h-.11l-8.44,15.56h10.47Z"/>
          <path class="cls-1" d="M3323.33,1802.05c1.97,0,3.79.19,5.46.57,1.66.38,3.1,1.02,4.3,1.89,1.21.88,2.15,2.05,2.82,3.51.67,1.46,1.02,3.27,1.02,5.43s-.41,4.08-1.23,5.78c-.82,1.7-1.94,3.13-3.34,4.3-1.4,1.17-3.02,2.06-4.85,2.69-1.83.62-3.77.93-5.81.93h-10.63l-2.96,14.03h-8.55l8.11-39.13h15.67ZM3321.25,1820.46c2.19,0,3.92-.56,5.18-1.67,1.26-1.11,1.89-2.84,1.89-5.18,0-.99-.17-1.8-.52-2.44-.35-.64-.81-1.13-1.4-1.48-.58-.35-1.23-.59-1.95-.74-.71-.14-1.45-.22-2.22-.22h-7.34l-2.41,11.73h8.77Z"/>
          <path class="cls-1" d="M3359.94,1802.05l6.52,39.13h-8.55l-1.26-8.71h-14.63l-4.93,8.71h-9.04l23.07-39.13h8.82ZM3355.89,1826.05l-1.92-15.56h-.11l-8.44,15.56h10.47Z"/>
          <polygon class="cls-1" points="3389.7 1802.05 3392.72 1830.38 3392.83 1830.38 3407.9 1802.05 3419.9 1802.05 3411.63 1841.18 3403.57 1841.18 3410.69 1810.05 3410.59 1810.05 3394.03 1841.18 3387.46 1841.18 3383.67 1810.05 3383.57 1810.05 3377.7 1841.18 3369.59 1841.18 3377.81 1802.05 3389.7 1802.05"/>
          <path class="cls-1" d="M3443.09,1802.05c1.97,0,3.79.19,5.45.57,1.66.38,3.1,1.02,4.3,1.89,1.2.88,2.15,2.05,2.82,3.51.68,1.46,1.01,3.27,1.01,5.43s-.41,4.08-1.23,5.78c-.82,1.7-1.94,3.13-3.34,4.3-1.41,1.17-3.02,2.06-4.85,2.69-1.83.62-3.76.93-5.81.93h-10.63l-2.96,14.03h-8.55l8.11-39.13h15.67ZM3441,1820.46c2.19,0,3.92-.56,5.18-1.67,1.26-1.11,1.89-2.84,1.89-5.18,0-.99-.17-1.8-.52-2.44-.35-.64-.81-1.13-1.4-1.48-.58-.35-1.23-.59-1.95-.74-.71-.14-1.45-.22-2.22-.22h-7.34l-2.41,11.73h8.77Z"/>
          <path class="cls-1" d="M3479.7,1802.05l6.52,39.13h-8.55l-1.26-8.71h-14.64l-4.93,8.71h-9.04l23.07-39.13h8.82ZM3475.64,1826.05l-1.92-15.56h-.11l-8.44,15.56h10.47Z"/>
        </g>
      </g>
    </g>
  </g>
</svg>