<?xml version="1.0" encoding="UTF-8"?>
<svg id="Layer_2" xmlns="http://www.w3.org/2000/svg" width="3840" height="2160" viewBox="0 0 3840 2160">
  <defs>
    <style>
      .cls-1 {
        fill: #fff;
      }

      .cls-2 {
        fill: #5a9baf;
      }
    </style>
  </defs>
  <g id="backgrounds">
    <g>
      <rect class="cls-2" width="3840" height="2160"/>
      <g>
        <path class="cls-1" d="M2679.5,1059.43c0-35.81-13.95-69.48-39.27-94.8-25.32-25.32-58.99-39.27-94.8-39.27s-69.48,13.95-94.8,39.27c-25.32,25.32-39.27,58.99-39.27,94.8s13.95,69.48,39.27,94.8c20.64,20.64,46.82,33.71,75.18,37.85v13.94c0,10.63,8.62,19.24,19.24,19.24s19.24-8.61,19.24-19.24v-13.84c28.65-4.01,55.12-17.13,75.93-37.95,25.32-25.32,39.27-58.99,39.27-94.8ZM2545.05,1070.33c-10.63,0-19.24,8.61-19.24,19.24v38.18c-30.33-7.91-52.79-35.54-52.79-68.32,0-38.93,31.67-70.6,70.6-70.6s70.6,31.67,70.6,70.6c0,31.74-21.05,58.65-49.93,67.51v-37.37c0-10.63-8.62-19.24-19.24-19.24ZM2564.29,1185.94v-6.46c25.29-3.92,48.61-15.7,67.05-34.13,22.95-22.95,35.59-53.46,35.59-85.92s-12.64-62.97-35.59-85.92c-22.95-22.95-53.46-35.59-85.92-35.59-10.63,0-19.24,8.61-19.24,19.24s8.62,19.24,19.24,19.24c45.78,0,83.02,37.24,83.02,83.02,0,39.29-27.44,72.29-64.16,80.86v-6.93c32.31-9.05,56.08-38.76,56.08-73.93,0-42.32-34.43-76.76-76.76-76.76s-76.76,34.43-76.76,76.76c0,36.19,25.18,66.61,58.94,74.66v51.74c-61.25-9.47-108.29-62.55-108.29-126.41,0-70.53,57.38-127.91,127.91-127.91s127.91,57.38,127.91,127.91c0,64.12-47.43,117.37-109.04,126.52Z"/>
        <g>
          <path class="cls-1" d="M1206.84,909.24h-27.25l-5.62,15.91h-13.47l27.68-72.23h10.18l27.78,72.23h-13.57l-5.73-15.91ZM1203.13,898.84l-10.08-28.1-9.86,28.1h19.94Z"/>
          <path class="cls-1" d="M1303.14,886.22v33.51c-7.36,4.31-16.12,6.47-26.3,6.47-7.49,0-14-1.52-19.51-4.56-5.51-3.04-9.75-7.32-12.72-12.84-2.97-5.52-4.45-11.87-4.45-19.09s1.57-14.08,4.72-19.77c3.14-5.69,7.6-10.11,13.36-13.25,5.76-3.15,12.46-4.72,20.09-4.72s14.95,1.38,21.53,4.13v11.99c-2.9-1.49-6.14-2.69-9.71-3.6-3.57-.92-7.19-1.38-10.87-1.38-7.92,0-14.2,2.31-18.83,6.95-4.63,4.63-6.95,11.05-6.95,19.24,0,5.16,1.04,9.69,3.13,13.58,2.09,3.89,5.06,6.89,8.91,9.01,3.85,2.12,8.33,3.18,13.42,3.18,4.1,0,8.09-.85,11.99-2.54v-15.7h-15.17v-10.61h27.36Z"/>
          <polygon class="cls-1" points="1372.49 914.86 1372.49 925.14 1329.65 925.14 1329.65 853.03 1372.17 853.03 1372.17 863.32 1342.37 863.32 1342.37 883.68 1370.16 883.68 1370.16 893.96 1342.37 893.96 1342.37 914.86 1372.49 914.86"/>
          <polygon class="cls-1" points="1459.98 853.03 1459.98 925.15 1449.7 925.15 1408.97 872.23 1408.97 925.15 1397.52 925.15 1397.52 853.03 1408.66 853.03 1448.53 905.31 1448.53 853.03 1459.98 853.03"/>
          <path class="cls-1" d="M1501.08,921.59c-5.55-3.07-9.86-7.38-12.94-12.94-3.08-5.55-4.62-11.89-4.62-19.04s1.54-13.98,4.62-19.67c3.07-5.69,7.49-10.11,13.25-13.26,5.76-3.14,12.5-4.72,20.2-4.72,6.29,0,12.09.89,17.4,2.65v11.77c-5.44-2.19-10.89-3.29-16.33-3.29s-9.88,1.11-13.74,3.33c-3.85,2.23-6.8,5.34-8.85,9.33-2.05,4-3.08,8.61-3.08,13.84,0,4.95,1.01,9.35,3.02,13.2,2.02,3.85,4.84,6.86,8.49,9.01,3.64,2.16,7.82,3.24,12.56,3.24,6.15,0,12.09-1.27,17.82-3.82v11.77c-2.62,1.06-5.41,1.86-8.38,2.39-2.97.53-6.43.79-10.39.79-7.14,0-13.49-1.54-19.04-4.61"/>
          <rect class="cls-1" x="1562.11" y="853.03" width="12.72" height="72.11"/>
          <path class="cls-1" d="M1640.58,909.24h-27.25l-5.62,15.91h-13.47l27.68-72.23h10.18l27.78,72.23h-13.57l-5.73-15.91ZM1636.87,898.84l-10.08-28.1-9.86,28.1h19.94Z"/>
          <rect class="cls-1" x="1170.65" y="968.65" width="56" height="197.3"/>
          <rect class="cls-1" x="1256.53" y="1062.95" width="82.99" height="44.97"/>
          <path class="cls-1" d="M1407.56,1156.53c-15.58-8.22-27.76-19.92-36.56-35.11-8.8-15.18-13.2-32.83-13.2-52.95s4.4-39.07,13.2-54.55c8.8-15.48,21.38-27.37,37.72-35.69,16.34-8.31,35.73-12.48,58.18-12.48,17.79,0,33.36,2.61,46.72,7.84v47c-12-4.64-25.15-6.96-39.47-6.96-18.18,0-32.26,4.79-42.22,14.36-9.96,9.58-14.94,22.98-14.94,40.19,0,16.25,4.79,29.07,14.36,38.45,9.58,9.39,22.68,14.08,39.32,14.08,8.32,0,15.77-.77,22.35-2.32,6.57-1.54,13.64-3.77,21.18-6.68v46.72c-14.32,6.97-32.02,10.45-53.1,10.45s-37.96-4.11-53.53-12.33"/>
          <path class="cls-1" d="M1570.91,1155.95c-15.38-8.61-27.37-20.6-35.97-35.98-8.61-15.38-12.91-32.83-12.91-52.37,0-20.5,4.3-38.45,12.91-53.82,8.6-15.38,20.7-27.22,36.26-35.54,15.57-8.32,33.41-12.48,53.53-12.48s37.04,4.01,52.52,12.04c15.47,8.03,27.66,19.69,36.56,34.97,8.9,15.28,13.35,33.18,13.35,53.68s-4.3,37.33-12.91,52.81c-8.61,15.48-20.75,27.61-36.41,36.41-15.67,8.8-33.95,13.2-54.84,13.2-19.34,0-36.7-4.3-52.08-12.91M1656.36,1106.63c7.54-9.38,11.31-22.59,11.31-39.61s-3.87-30.61-11.6-39.61c-7.74-8.99-17.99-13.49-30.76-13.49s-24.04,4.55-32.06,13.64c-8.03,9.09-12.04,22.15-12.04,39.17s3.82,30.76,11.46,40.04c7.64,9.29,18.22,13.93,31.77,13.93s24.38-4.69,31.92-14.07"/>
          <polygon class="cls-1" points="1965.37 968.65 1965.37 1165.96 1913.43 1165.96 1913.43 1060.34 1864.4 1131.43 1849.89 1131.43 1802.02 1061.21 1802.02 1165.96 1750.37 1165.96 1750.37 968.65 1800.57 968.65 1859.47 1058.02 1919.82 968.65 1965.37 968.65"/>
          <polygon class="cls-1" points="2131.63 1123.02 2131.63 1165.96 2000.48 1165.96 2000.48 968.65 2130.47 968.65 2130.47 1011.59 2056.48 1011.59 2056.48 1044.96 2124.95 1044.96 2124.95 1088.2 2056.48 1088.2 2056.48 1123.02 2131.63 1123.02"/>
          <polygon class="cls-1" points="2280.77 1165.96 2241.59 1102.7 2203.3 1165.96 2140.33 1165.96 2209.1 1064.7 2142.65 968.65 2207.07 968.65 2241.59 1027.55 2279.32 968.65 2342.28 968.65 2276.12 1065.57 2343.73 1165.96 2280.77 1165.96"/>
          <polygon class="cls-1" points="1703.74 1208.18 1686.68 1289.57 1734.93 1289.57 1731.01 1308.03 1660.82 1308.03 1681.65 1208.18 1703.74 1208.18"/>
          <path class="cls-1" d="M1812.26,1208.18l16.64,99.85h-21.81l-3.22-22.23h-37.33l-12.58,22.23h-23.07l58.87-99.85h22.52ZM1801.91,1269.43l-4.89-39.71h-.28l-21.53,39.71h26.71Z"/>
          <path class="cls-1" d="M1936.43,1208.18c5.03,0,9.67.49,13.92,1.47,4.24.98,7.9,2.59,10.97,4.83,3.08,2.24,5.47,5.22,7.2,8.95,1.72,3.72,2.59,8.34,2.59,13.84s-1.05,10.42-3.15,14.76c-2.1,4.33-4.94,7.99-8.53,10.97-3.58,2.99-7.71,5.27-12.37,6.85-4.67,1.59-9.61,2.37-14.83,2.37h-27.13l-7.55,35.8h-21.81l20.7-99.85h39.99ZM1931.12,1255.17c5.59,0,10-1.42,13.21-4.27,3.22-2.84,4.83-7.24,4.83-13.21,0-2.51-.45-4.59-1.33-6.22-.89-1.63-2.07-2.89-3.57-3.77-1.49-.89-3.14-1.52-4.96-1.89-1.82-.37-3.7-.56-5.66-.56h-18.73l-6.15,29.93h22.37Z"/>
          <path class="cls-1" d="M2029.85,1208.18l16.64,99.85h-21.81l-3.22-22.23h-37.33l-12.58,22.23h-23.07l58.87-99.85h22.52ZM2019.49,1269.43l-4.89-39.71h-.28l-21.53,39.71h26.71Z"/>
          <polygon class="cls-1" points="2105.77 1208.18 2113.46 1280.48 2113.75 1280.48 2152.2 1208.18 2182.82 1208.18 2161.71 1308.03 2141.15 1308.03 2159.33 1228.6 2159.05 1228.6 2116.82 1308.03 2100.04 1308.03 2090.39 1228.6 2090.11 1228.6 2075.15 1308.03 2054.46 1308.03 2075.43 1208.18 2105.77 1208.18"/>
          <path class="cls-1" d="M2241.98,1208.18c5.03,0,9.67.49,13.91,1.47,4.24.98,7.9,2.59,10.98,4.83,3.07,2.24,5.47,5.22,7.2,8.95,1.73,3.72,2.58,8.34,2.58,13.84s-1.05,10.42-3.14,14.76c-2.1,4.33-4.94,7.99-8.53,10.97-3.59,2.99-7.71,5.27-12.38,6.85-4.66,1.59-9.6,2.37-14.82,2.37h-27.13l-7.55,35.8h-21.81l20.7-99.85h39.99ZM2236.67,1255.17c5.59,0,10-1.42,13.21-4.27,3.21-2.84,4.83-7.24,4.83-13.21,0-2.51-.45-4.59-1.33-6.22-.89-1.63-2.07-2.89-3.57-3.77-1.49-.89-3.14-1.52-4.96-1.89-1.81-.37-3.7-.56-5.66-.56h-18.73l-6.15,29.93h22.37Z"/>
          <path class="cls-1" d="M2335.39,1208.18l16.64,99.85h-21.81l-3.21-22.23h-37.34l-12.58,22.23h-23.07l58.87-99.85h22.52ZM2325.04,1269.43l-4.89-39.71h-.28l-21.53,39.71h26.71Z"/>
        </g>
      </g>
    </g>
  </g>
</svg>