<?xml version="1.0" encoding="UTF-8"?>
<svg id="Layer_2" xmlns="http://www.w3.org/2000/svg" width="40.73" height="46.9" viewBox="0 0 40.73 46.9">
  <defs>
    <style>
      .cls-1 {
        fill: #1a1a1a;
      }
    </style>
  </defs>
  <g id="menu_inicio">
    <g>
      <path class="cls-1" d="M21.8,11.7c-.9-.9-2.7-1.7-4.1-1.7H2.5c-1.4,0-2.5,1.1-2.5,2.5v31.9c0,1.4,1.1,2.5,2.5,2.5h25.8c1.4,0,2.5-1.1,2.5-2.5v-21.3c0-1.3-.8-3.1-1.7-4.1l-7.3-7.3ZM18.7,22.2v-8.4c.3.1.5.3.6.3l7.4,7.4c.1.1.2.3.3.6h-8.3v.1ZM17.7,25.7h9.6v17.8H3.5V13.6h11.7v9.6c0,1.4,1.1,2.5,2.5,2.5Z"/>
      <path class="cls-1" d="M39.2,9.1l-7.4-7.4c-.9-.9-2.7-1.7-4.1-1.7h-15.2c-1.4,0-2.5,1.1-2.5,2.5v5.8h3.5V3.5h11.7v9.6c0,1.4,1.1,2.5,2.5,2.5h9.6v17.8h-4.1v3.5h5c1.4,0,2.5-1.1,2.5-2.5V13.1c.2-1.2-.6-3-1.5-4ZM28.7,12.2V3.8c.3.1.5.3.6.4l7.4,7.4c.1.1.2.3.3.6h-8.3Z"/>
    </g>
  </g>
</svg>