<?xml version="1.0" encoding="UTF-8"?>
<svg id="Layer_2" xmlns="http://www.w3.org/2000/svg" width="46.7" height="29.7" viewBox="0 0 46.7 29.7">
  <defs>
    <style>
      .cls-1 {
        fill: #1a1a1a;
      }
    </style>
  </defs>
  <g id="menu_inicio">
    <path class="cls-1" d="M45.5,0h-28c-.6,0-1.1.6-1.1,1.3v6.2h-8c-.7,0-1.2.4-1.6,1.3l-1.6,5.9-4.2.9c-.6.1-1,.6-1,1.2v8.7h2.4c.1,2.3,1.9,4.2,4.1,4.2s4-1.9,4.1-4.2h7.8c.1,2.3,1.9,4.2,4.1,4.2s4-1.9,4.1-4.2h8c.1,2.3,1.9,4.2,4.1,4.2s4-1.9,4.1-4.2h3.9V1.3c-.1-.8-.6-1.3-1.2-1.3ZM15.1,10v4.9h-7.3l.2-.7,1.2-4.4.1-.4h5.9v.6h-.1Z"/>
  </g>
</svg>