<?xml version="1.0" encoding="UTF-8"?>
<svg id="Layer_2" xmlns="http://www.w3.org/2000/svg" width="46.5" height="40.3" viewBox="0 0 46.5 40.3">
  <defs>
    <style>
      .cls-1 {
        fill: #1a1a1a;
      }
    </style>
  </defs>
  <g id="menu_inicio">
    <path class="cls-1" d="M46.5,36.4c0,2.1-1.7,3.9-3.9,3.9H3.9c-2.1,0-3.9-1.7-3.9-3.9V3.9C0,1.8,1.7,0,3.9,0h38.7c2.1,0,3.9,1.7,3.9,3.9v32.5ZM8.8,4.9c0-.7-.6-1.3-1.3-1.3h-2.6c-.7,0-1.3.6-1.3,1.3v2.6c0,.7.6,1.3,1.3,1.3h2.6c.7,0,1.3-.6,1.3-1.3v-2.6ZM8.8,14.2c0-.7-.6-1.3-1.3-1.3h-2.6c-.7,0-1.3.6-1.3,1.3v2.6c0,.7.6,1.3,1.3,1.3h2.6c.7,0,1.3-.6,1.3-1.3v-2.6ZM8.8,23.5c0-.7-.6-1.3-1.3-1.3h-2.6c-.7,0-1.3.6-1.3,1.3v2.6c0,.7.6,1.3,1.3,1.3h2.6c.7,0,1.3-.6,1.3-1.3v-2.6ZM8.8,32.8c0-.7-.6-1.3-1.3-1.3h-2.6c-.7,0-1.3.6-1.3,1.3v2.6c0,.7.6,1.3,1.3,1.3h2.6c.7,0,1.3-.6,1.3-1.3v-2.6ZM34.1,4.6c0-.8-.7-1.6-1.5-1.6H14c-.8,0-1.6.7-1.6,1.6v12.4c0,.8.7,1.5,1.6,1.5h18.6c.8,0,1.5-.7,1.5-1.5V4.6ZM34.1,23.2c0-.8-.7-1.6-1.5-1.6H14c-.8,0-1.6.7-1.6,1.6v12.4c0,.8.7,1.5,1.6,1.5h18.6c.8,0,1.5-.7,1.5-1.5v-12.4ZM42.9,4.9c0-.7-.6-1.3-1.3-1.3h-2.6c-.7,0-1.3.6-1.3,1.3v2.6c0,.7.6,1.3,1.3,1.3h2.6c.7,0,1.3-.6,1.3-1.3v-2.6ZM42.9,14.2c0-.7-.6-1.3-1.3-1.3h-2.6c-.7,0-1.3.6-1.3,1.3v2.6c0,.7.6,1.3,1.3,1.3h2.6c.7,0,1.3-.6,1.3-1.3v-2.6ZM42.9,23.5c0-.7-.6-1.3-1.3-1.3h-2.6c-.7,0-1.3.6-1.3,1.3v2.6c0,.7.6,1.3,1.3,1.3h2.6c.7,0,1.3-.6,1.3-1.3v-2.6ZM42.9,32.8c0-.7-.6-1.3-1.3-1.3h-2.6c-.7,0-1.3.6-1.3,1.3v2.6c0,.7.6,1.3,1.3,1.3h2.6c.7,0,1.3-.6,1.3-1.3v-2.6Z"/>
  </g>
</svg>